<?xml version="1.0" encoding="UTF-8"?>
<svg id="Layer_2" data-name="Layer 2" xmlns="http://www.w3.org/2000/svg" viewBox="0 0 58.7 72.9">
  <defs>
    <style>
      .cls-1, .cls-2 {
        fill: #fff;
      }

      .cls-3 {
        isolation: isolate;
      }

      .cls-4 {
        fill: #09f;
      }

      .cls-2 {
        stroke: #fff;
        stroke-miterlimit: 10;
        stroke-width: 1.38px;
      }
    </style>
  </defs>
  <g id="Layer_2-2" data-name="Layer 2">
    <path class="cls-4" d="m29.2,72.3c-.9,0-1.8-.2-2.6-.6l-20.5-10.2c-3.3-1.7-5.4-5-5.4-8.7V6.5C.7,3.6,3,1.3,5.9,1.3h46.2c2.9,0,5.2,2.3,5.2,5.2v45.9c0,3.6-2,6.9-5.2,8.6l-20.2,10.6c-.9.5-1.8.7-2.7.7h0ZM5.9,4.5c-1.1,0-2,.9-2,2v46.3c0,2.5,1.4,4.7,3.6,5.8l20.5,10.2c.7.4,1.6.4,2.4,0l20.3-10.6c2.2-1.1,3.5-3.3,3.5-5.8V6.5c0-1.1-.9-2-2-2H5.9Z"/>
    <path d="m29.4,72.9h-.4c-.9-.1-1.8-.3-2.6-.7l-20.5-10.2c-3.6-1.8-5.9-5.5-5.9-9.5V6.2C0,2.8,2.8,0,6.2,0h46.3c3.4,0,6.2,2.8,6.2,6.2v45.9c0,4-2.2,7.6-5.7,9.4l-20.5,10.7c-1,.5-2,.7-3.1.7ZM6.1,1.9C3.7,1.9,1.8,3.8,1.8,6.2v46.3c0,3.3,1.9,6.3,4.9,7.8l20.5,10.2c.7.3,1.4.5,2.2.5h.3c.7,0,1.3-.2,2-.5l20.3-10.6c2.9-1.5,4.7-4.5,4.7-7.8V6.2c0-2.4-1.9-4.3-4.3-4.3,0,0-46.3,0-46.3,0Z"/>
    <path d="m29.4,69.7c-.5,0-1.1-.1-1.6-.4l-20.5-10.2c-2.6-1.3-4.1-3.8-4.1-6.7V6.1c0-1.6,1.3-3,3-3h46.3c1.6,0,3,1.3,3,3v45.9c0,2.8-1.5,5.3-4,6.6l-20.3,10.6c-.7.4-1.2.5-1.8.5Z"/>
    <g class="cls-3">
      <path class="cls-1" d="m8.4,9.7h7.8c2.9,0,5,.7,6.2,2,1.1,1.1,1.7,2.6,1.7,4.5v.2c0,2.7-1.3,4.5-3.3,5.6l3.8,6.7h-6.6l-3-5.5h-1v5.5h-5.8V9.7h.2Zm7.7,9.1c1.3,0,2.1-.7,2.1-2v-.1c0-1.4-.8-2-2.1-2h-1.9v4.2h1.9v-.1Z"/>
    </g>
    <path class="cls-1" d="m51.4,9.7l-6.7,8c-.1.1-.3.1-.3-.1l-.7-2.6c0-.1-.2-.2-.3,0l-7.7,13.5c-.1.2.1.4.3.2l6.7-8c.1-.1.3-.1.3.1l.7,2.6c0,.1.2.2.3,0l7.7-13.5c.1-.2-.1-.4-.3-.2h0Z"/>
    <path class="cls-2" d="m44.8,41.3h4.9v1.8h-1.3v12.5l-2.3,2.4h-6.1l-2.3-2.4v-12.5h-1.3v-1.8h4.9v1.8h-1.6v11.8l1.1,1.2h4.3l1.2-1.2v-11.8h-1.6l.1-1.8h0Z"/>
    <path class="cls-1" d="m16.1,40.8l-2,6c0,.1-.1.1-.2.1h-6.4c-.2,0-.3.3-.1.4l5.1,3.8q.1.1.1.2l-1.9,6.1c-.1.2.2.3.3.2l5.2-3.7c.1-.1.2-.1.2,0l5.2,3.6c.2.1.4,0,.3-.2l-1.9-6.1c0-.1,0-.2.1-.2l5.2-3.8c.2-.1.1-.4-.1-.4h-6.4c-.1,0-.2-.1-.2-.1l-2.1-6c0-.1-.3-.1-.4.1Z"/>
    <path class="cls-4" d="m53.2,35.2h-21.6c-.6,0-1.1-.5-1.1-1.1V5.5c0-.5-.4-.9-.9-.9s-.9.4-.9.9v28.6c0,.6-.5,1.1-1.1,1.1H5.6c-.5,0-.9.4-.9.9s.4.9.9.9h22c.6,0,1.1.5,1.1,1.1v28.7c0,.5.4.9.9.9s.9-.4.9-.9v-28.6c0-.6.5-1.1,1.1-1.1h21.6c.5,0,.9-.4.9-.9s-.4-1-.9-1Z"/>
  </g>
</svg>