<?xml version="1.0" encoding="utf-8"?>
<!-- Generator: Adobe Illustrator 21.1.0, SVG Export Plug-In . SVG Version: 6.00 Build 0)  -->
<svg version="1.1"
	 id="svg2" inkscape:export-filename="/Users/plp/src/perforce-plp/rmanprod/rat/apps/erman_maya/icons/rman_RMSGeoAreaLight.png" inkscape:export-xdpi="90" inkscape:export-ydpi="90" inkscape:version="0.91 r13725" sodipodi:docname="rman_PxrDiskLight.svg" xmlns:cc="http://creativecommons.org/ns#" xmlns:dc="http://purl.org/dc/elements/1.1/" xmlns:inkscape="http://www.inkscape.org/namespaces/inkscape" xmlns:rdf="http://www.w3.org/1999/02/22-rdf-syntax-ns#" xmlns:sodipodi="http://sodipodi.sourceforge.net/DTD/sodipodi-0.dtd" xmlns:svg="http://www.w3.org/2000/svg"
	 xmlns="http://www.w3.org/2000/svg" xmlns:xlink="http://www.w3.org/1999/xlink" x="0px" y="0px" viewBox="0 0 32 32"
	 style="enable-background:new 0 0 32 32;" xml:space="preserve">
<style type="text/css">
	.st0{fill:#FFE28F;}
	.st1{opacity:0.6;fill:#808080;}
</style>
<sodipodi:namedview  bordercolor="#666666" borderopacity="0.29803922" id="base" inkscape:bbox-nodes="true" inkscape:bbox-paths="true" inkscape:current-layer="layer3" inkscape:cx="8.3882897" inkscape:cy="15.999999" inkscape:document-units="px" inkscape:object-nodes="true" inkscape:object-paths="true" inkscape:pageopacity="0.0" inkscape:pageshadow="2" inkscape:snap-bbox="true" inkscape:snap-bbox-edge-midpoints="true" inkscape:snap-bbox-midpoints="true" inkscape:snap-global="true" inkscape:snap-intersection-paths="true" inkscape:snap-midpoints="true" inkscape:snap-nodes="true" inkscape:snap-smooth-nodes="true" inkscape:window-height="974" inkscape:window-maximized="1" inkscape:window-width="1680" inkscape:window-x="0" inkscape:window-y="0" inkscape:zoom="20.28125" pagecolor="#ffffff" showgrid="true" units="px">
	<inkscape:grid  id="grid4417" type="xygrid"></inkscape:grid>
</sodipodi:namedview>
<g id="layer2" inkscape:groupmode="layer" inkscape:label="main">
	<path id="path5200" class="st0" d="M26.1,16.1c0.2,3-0.9,5.8-2.9,7.8c-2,2-4.7,3-7.6,2.9c-2.8-0.1-5.5-1.4-7.6-3.3
		c-2-2-3.2-4.6-3.4-7.4c-0.2-2.8,0.6-5.4,2.3-7.4c1.8-2,4.3-3.3,7.1-3.4s5.7,1,8,2.9C24.5,10.2,25.9,13.1,26.1,16.1L26.1,16.1"/>
	<path id="path5198" class="st1" d="M15.6,0c-0.5,0-1.2,0-1.7,0C5.5,0.6-0.5,7.8,0,16.1C0.6,24.3,7.6,31.3,16,32
		c9,0.6,16.5-6.5,16-15.9C31.4,7.2,24,0.3,15.6,0z M15.5,3.1c6.8,0.3,12.8,5.9,13.2,13c0.5,7.6-5.4,13.3-12.8,12.9
		c-7-0.4-12.8-6.2-13.2-12.9C2.2,9.3,7.2,3.4,14.1,3.1C14.5,3,14.9,3,15.5,3.1z"/>
</g>
</svg>
