<?xml version="1.0" encoding="utf-8"?>
<!-- Generator: Adobe Illustrator 21.1.0, SVG Export Plug-In . SVG Version: 6.00 Build 0)  -->
<svg version="1.1"
	 id="svg2" inkscape:export-filename="/Users/plp/src/perforce-plp/rmanprod/rat/apps/erman_maya/icons/rman_RMSEnvLight.png" inkscape:export-xdpi="90" inkscape:export-ydpi="90" inkscape:version="0.91 r13725" sodipodi:docname="rman_PxrDomeLight.svg" xmlns:cc="http://creativecommons.org/ns#" xmlns:dc="http://purl.org/dc/elements/1.1/" xmlns:inkscape="http://www.inkscape.org/namespaces/inkscape" xmlns:rdf="http://www.w3.org/1999/02/22-rdf-syntax-ns#" xmlns:sodipodi="http://sodipodi.sourceforge.net/DTD/sodipodi-0.dtd" xmlns:svg="http://www.w3.org/2000/svg"
	 xmlns="http://www.w3.org/2000/svg" xmlns:xlink="http://www.w3.org/1999/xlink" x="0px" y="0px" viewBox="0 0 32 32"
	 style="enable-background:new 0 0 32 32;" xml:space="preserve">
<style type="text/css">
	.st0{display:none;fill:#404040;}
	.st1{fill:#FFE28F;}
	.st2{fill:#FFCE8F;}
	.st3{opacity:0.634;}
	.st4{fill:url(#circle7016_2_);}
</style>
<sodipodi:namedview  bordercolor="#666666" borderopacity="0.29803922" id="base" inkscape:bbox-nodes="true" inkscape:bbox-paths="true" inkscape:current-layer="layer2" inkscape:cx="6.5739603" inkscape:cy="13.5" inkscape:document-units="px" inkscape:object-nodes="true" inkscape:object-paths="true" inkscape:pageopacity="0.0" inkscape:pageshadow="2" inkscape:snap-bbox="true" inkscape:snap-bbox-edge-midpoints="true" inkscape:snap-bbox-midpoints="true" inkscape:snap-global="true" inkscape:snap-intersection-paths="true" inkscape:snap-midpoints="true" inkscape:snap-nodes="true" inkscape:snap-smooth-nodes="true" inkscape:window-height="974" inkscape:window-maximized="1" inkscape:window-width="1680" inkscape:window-x="0" inkscape:window-y="0" inkscape:zoom="17.540541" pagecolor="#ffffff" showgrid="true" showguides="true" units="px">
	<inkscape:grid  id="grid4417" type="xygrid"></inkscape:grid>
</sodipodi:namedview>
<path id="rect4138" inkscape:connector-curvature="0" class="st0" d="M0,0h32v32H0V0z"/>
<g id="layer2_1_" inkscape:groupmode="layer" inkscape:label="main">
	<circle id="path6973_1_" class="st1" cx="16" cy="16" r="10.2"/>
	<g id="g7153_1_" transform="matrix(0.92387953,-0.38268343,0.38268343,0.92387953,-4.9050074,7.3408624)">
		<g id="g7143_1_">
			<path id="path7139_1_" inkscape:connector-curvature="0" sodipodi:nodetypes="ccscc" class="st2" d="M16-1.3l3.3,5.4
				c0,0-2.1-0.4-3.3-0.4c-1.1,0-3.3,0.4-3.3,0.4L16-1.3z"/>
			<path id="path7141_1_" inkscape:connector-curvature="0" sodipodi:nodetypes="ccscc" class="st2" d="M16,33.3l3.3-5.4
				c0,0-2.1,0.4-3.3,0.4c-1.1,0-3.3-0.4-3.3-0.4L16,33.3z"/>
		</g>
		<g id="g7147_1_" transform="matrix(0,1,-1,0,32,0)">
			<path id="path7149_1_" inkscape:connector-curvature="0" sodipodi:nodetypes="ccscc" class="st2" d="M16-1.3l3.3,5.4
				c0,0-2.1-0.4-3.3-0.4s-3.3,0.4-3.3,0.4L16-1.3z"/>
			<path id="path7151_1_" inkscape:connector-curvature="0" sodipodi:nodetypes="ccscc" class="st2" d="M16,33.3l3.3-5.4
				c0,0-2.1,0.4-3.3,0.4s-3.3-0.4-3.3-0.4L16,33.3z"/>
		</g>
	</g>
	<g id="g7161_1_" transform="matrix(0.38268343,-0.92387953,0.92387953,0.38268343,-4.9050074,24.659138)">
		<g id="g7163_1_">
			<path id="path7165_1_" inkscape:connector-curvature="0" sodipodi:nodetypes="ccscc" class="st2" d="M16-1.3l3.3,5.4
				c0,0-2.1-0.4-3.3-0.4s-3.3,0.4-3.3,0.4L16-1.3z"/>
			<path id="path7167_1_" inkscape:connector-curvature="0" sodipodi:nodetypes="ccscc" class="st2" d="M16,33.3l3.3-5.4
				c0,0-2.1,0.4-3.3,0.4c-1.2,0-3.3-0.4-3.3-0.4L16,33.3z"/>
		</g>
		<g id="g7169_1_" transform="matrix(0,1,-1,0,32,0)">
			<path id="path7171_1_" inkscape:connector-curvature="0" sodipodi:nodetypes="ccscc" class="st2" d="M16-1.3l3.3,5.4
				c0,0-2.1-0.4-3.3-0.4c-1.2,0-3.3,0.4-3.3,0.4L16-1.3z"/>
			<path id="path7173_1_" inkscape:connector-curvature="0" sodipodi:nodetypes="ccscc" class="st2" d="M16,33.3l3.3-5.4
				c0,0-2.1,0.4-3.3,0.4c-1.1,0-3.3-0.4-3.3-0.4L16,33.3z"/>
		</g>
	</g>
</g>
<g id="layer3_1_" inkscape:groupmode="layer" inkscape:label="shading" class="st3">
	
		<radialGradient id="circle7016_2_" cx="67.4339" cy="80.2054" r="10.5689" gradientTransform="matrix(0.9651 0 0 -0.9651 -49.0805 93.4062)" gradientUnits="userSpaceOnUse">
		<stop  offset="0" style="stop-color:#FFFFFF"/>
		<stop  offset="0.5581" style="stop-color:#FFFFFF;stop-opacity:0.6514"/>
		<stop  offset="1" style="stop-color:#FFFFFF;stop-opacity:0"/>
	</radialGradient>
	<circle id="circle7016_1_" class="st4" cx="16" cy="16" r="10.2"/>
</g>
</svg>
