<?xml version="1.0" encoding="utf-8"?>
<!-- Generator: Adobe Illustrator 21.1.0, SVG Export Plug-In . SVG Version: 6.00 Build 0)  -->
<svg version="1.1"
	 id="svg2" inkscape:export-filename="/Users/plp/src/perforce-plp/rmanprod/rat/apps/erman_maya/icons/rman_RMSGeoAreaLight.png" inkscape:export-xdpi="90" inkscape:export-ydpi="90" inkscape:version="0.91 r13725" sodipodi:docname="rman_PxrSphereLight.svg" xmlns:cc="http://creativecommons.org/ns#" xmlns:dc="http://purl.org/dc/elements/1.1/" xmlns:inkscape="http://www.inkscape.org/namespaces/inkscape" xmlns:rdf="http://www.w3.org/1999/02/22-rdf-syntax-ns#" xmlns:sodipodi="http://sodipodi.sourceforge.net/DTD/sodipodi-0.dtd" xmlns:svg="http://www.w3.org/2000/svg"
	 xmlns="http://www.w3.org/2000/svg" xmlns:xlink="http://www.w3.org/1999/xlink" x="0px" y="0px" viewBox="0 0 32 32"
	 style="enable-background:new 0 0 32 32;" xml:space="preserve">
<style type="text/css">
	.st0{fill:#FFE28F;}
	.st1{opacity:0.634;}
	.st2{fill:url(#circle7016_1_);}
	.st3{opacity:0.6;fill:#808080;}
	.st4{fill:#FFE28F;stroke:#FFE28F;stroke-miterlimit:10;}
	.st5{display:none;}
	.st6{display:inline;}
	.st7{opacity:0.9961;}
	.st8{fill:#0099FF;}
	.st9{fill:url(#path5327_2_);}
</style>
<sodipodi:namedview  bordercolor="#666666" borderopacity="0.29803922" id="base" inkscape:bbox-nodes="true" inkscape:bbox-paths="true" inkscape:current-layer="layer3" inkscape:cx="20" inkscape:cy="15.999999" inkscape:document-units="px" inkscape:object-nodes="true" inkscape:object-paths="true" inkscape:pageopacity="0.0" inkscape:pageshadow="2" inkscape:snap-bbox="true" inkscape:snap-bbox-edge-midpoints="true" inkscape:snap-bbox-midpoints="true" inkscape:snap-global="true" inkscape:snap-intersection-paths="true" inkscape:snap-midpoints="true" inkscape:snap-nodes="true" inkscape:snap-smooth-nodes="true" inkscape:window-height="974" inkscape:window-maximized="1" inkscape:window-width="1680" inkscape:window-x="0" inkscape:window-y="0" inkscape:zoom="20.28125" pagecolor="#ffffff" showgrid="true" units="px">
	<inkscape:grid  id="grid4417" type="xygrid"></inkscape:grid>
</sodipodi:namedview>
<g id="layer2" inkscape:groupmode="layer" inkscape:label="main">
	<circle id="path6973" class="st0" cx="16" cy="16" r="10.8"/>
</g>
<g id="layer3" inkscape:groupmode="layer" inkscape:label="shading" class="st1">
	
		<radialGradient id="circle7016_1_" cx="16" cy="16" r="10.7579" gradientTransform="matrix(1 0 0 -1 0 32)" gradientUnits="userSpaceOnUse">
		<stop  offset="0" style="stop-color:#FFFFFF"/>
		<stop  offset="0.5581" style="stop-color:#FFFFFF;stop-opacity:0.6514"/>
		<stop  offset="1" style="stop-color:#FFFFFF;stop-opacity:0"/>
	</radialGradient>
	<circle id="circle7016" class="st2" cx="16" cy="16" r="10.8"/>
</g>
<path class="st3" d="M16,32C7.2,32,0,24.8,0,16S7.2,0,16,0s16,7.2,16,16S24.8,32,16,32z M16,3C8.8,3,3,8.8,3,16s5.8,13,13,13
	s13-5.8,13-13S23.2,3,16,3z"/>
<g id="layer4" inkscape:groupmode="layer" inkscape:label="shading 2">
	<g id="g4388" transform="matrix(0.92421386,0,0,0.92090163,1.2242364,1.2885023)">
		<ellipse id="path6973_1_" class="st4" cx="15.9" cy="15.9" rx="11.3" ry="11.2"/>
		<g id="g4306" transform="translate(-0.028,-0.055)" class="st5">
			<g id="layer2-5" inkscape:label="main" class="st6">
				<g id="path11050" class="st7">
					<path class="st8" d="M16,28C9.3,28,3.9,22.6,3.9,16S9.3,4,16,4s12.1,5.4,12.1,12S22.7,28,16,28z M16,5C9.9,5,4.9,10,4.9,16
						s5,11,11.1,11s11.1-4.9,11.1-11S22.1,5,16,5z"/>
				</g>
			</g>
		</g>
	</g>
</g>
<radialGradient id="path5327_2_" cx="-48.4615" cy="19.7174" r="10.8" gradientTransform="matrix(-0.4422 1.4375 1.39 0.4185 -29.5426 72.6862)" gradientUnits="userSpaceOnUse">
	<stop  offset="0" style="stop-color:#FFFFFF;stop-opacity:0.8"/>
	<stop  offset="0.3333" style="stop-color:#FFFFFF;stop-opacity:0"/>
	<stop  offset="0.6795" style="stop-color:#FFA508;stop-opacity:0.114"/>
	<stop  offset="0.9538" style="stop-color:#D67700;stop-opacity:0.6"/>
</radialGradient>
<ellipse id="path5327_1_" class="st9" cx="15.9" cy="16" rx="10.9" ry="10.8"/>
</svg>
